<svg xmlns="http://www.w3.org/2000/svg" viewBox="0 0 27.75 27.75"><defs><style>.cls-1{fill:#fff;}</style></defs><title>icn_desafio_Espiritualidade</title><g id="Layer_2" data-name="Layer 2"><g id="Layer_1-2" data-name="Layer 1"><circle class="cls-1" cx="24.03" cy="6.23" r="0.45"/><path class="cls-1" d="M8.52,27.75A1.56,1.56,0,0,1,8,27.64L5,26.2a1.54,1.54,0,0,1-.51-2.5L9.9,17.6H9.69a7.9,7.9,0,0,1-6.35-3.71L.07,8.65a.43.43,0,0,1,0-.45A.43.43,0,0,1,.45,8H4.68a16.72,16.72,0,0,0,2.54-.2c.43-.07.86-.16,1.28-.27l.11,0,0-.11a13.12,13.12,0,0,1-.61-4V.45A.45.45,0,0,1,8.29,0l.13,0a.45.45,0,0,1,.37.2,10.77,10.77,0,0,0,5.72,4.5l2.76.79a3.07,3.07,0,0,1,1.65,1.18l.07.1,1.63-1.83a3.37,3.37,0,0,1,5.71.53L27.7,8.22a.44.44,0,0,1-.4.64H26.21a1.74,1.74,0,0,0-1.74,1.74v3.27A8.36,8.36,0,0,1,16.06,22H12L9.94,26.79A1.52,1.52,0,0,1,8.52,27.75Zm7.54-13.23a.45.45,0,0,1,.31.76,7.87,7.87,0,0,1-5.23,2.31l-3.55,4L5.15,24.32a.67.67,0,0,0-.18.59.68.68,0,0,0,.4.47l2.92,1.44a.62.62,0,0,0,.23,0,.65.65,0,0,0,.6-.41L11,22l-.21.07a3.09,3.09,0,0,0-1.93,1.72.49.49,0,0,1-.44.33A.44.44,0,0,1,8,23.5l.11-.23a4,4,0,0,1,3.56-2.2h4.37a7.46,7.46,0,0,0,7.52-7.2V10.6A2.63,2.63,0,0,1,26.21,8h.37l-1-2.1a2.46,2.46,0,0,0-2.22-1.38,2.52,2.52,0,0,0-2,1l-3.73,4.2.88.53a.45.45,0,0,1,.2.27.45.45,0,0,1-.05.34.44.44,0,0,1-.38.21A.46.46,0,0,1,18,11L13.73,8.41a4.51,4.51,0,0,0-2.33-.64,4.37,4.37,0,0,0-.72.06,6.31,6.31,0,0,0-.92.24,16.84,16.84,0,0,1-2.4.57,16.15,16.15,0,0,1-2.68.22H1.25L2.77,11.3,4.58,12a7.49,7.49,0,0,0,2.7.49,7.55,7.55,0,0,0,4.16-1.2.45.45,0,0,1,.25-.07.44.44,0,0,1,.37.19.45.45,0,0,1-.12.62A8.46,8.46,0,0,1,7.27,13.4a8.47,8.47,0,0,1-3-.54l-.68-.27.51.82A7,7,0,0,0,10,16.7h.6a6.93,6.93,0,0,0,5.1-2.06A.48.48,0,0,1,16.06,14.52ZM11.41,6.88a5.44,5.44,0,0,1,2.78.77l2.62,1.57,1.56-1.74,0-.07A2.17,2.17,0,0,0,17,6.35l-2.76-.79A11.2,11.2,0,0,1,9,2L8.86,1.8V3.39a12.47,12.47,0,0,0,.57,3.74l0,.1.1,0a6,6,0,0,1,1-.25A5,5,0,0,1,11.41,6.88Z"/></g></g></svg>