<svg xmlns="http://www.w3.org/2000/svg" viewBox="0 0 24 24"><defs><style>.cls-1{fill:#fff;}</style></defs><title>icn_desafio_Saude</title><g id="Layer_2" data-name="Layer 2"><g id="Layer_1-2" data-name="Layer 1"><path class="cls-1" d="M8.2,24a.6.6,0,0,1-.6-.6v-7H.6a.59.59,0,0,1-.6-.6V8.2a.59.59,0,0,1,.6-.6h7V.6A.59.59,0,0,1,8.2,0h7.6a.59.59,0,0,1,.6.6v7h7a.67.67,0,0,1,.6.63V15.8a.6.6,0,0,1-.6.6h-7v7a.6.6,0,0,1-.6.6Zm-7-8.8h7a.59.59,0,0,1,.6.6v7h6.4v-7a.59.59,0,0,1,.6-.6h7l.07-.33V8.8h-7a.59.59,0,0,1-.6-.6v-7H8.8v7a.59.59,0,0,1-.6.6h-7Z"/></g></g></svg>