<svg xmlns="http://www.w3.org/2000/svg" viewBox="0 0 29.85 27.75"><defs><style>.cls-1{fill:#fff;}</style></defs><title>icn_desafio_Relacionamento</title><g id="Layer_2" data-name="Layer 2"><g id="Layer_1-2" data-name="Layer 1"><path class="cls-1" d="M29.8,8.27C29.36,3.48,26,0,21.72,0a8,8,0,0,0-6.88,4A7.73,7.73,0,0,0,8.13,0C3.88,0,.48,3.48.05,8.27A8.61,8.61,0,0,0,.3,11.42a13.43,13.43,0,0,0,4.14,6.89l10.39,9.44.62-.55h0v0l9.93-8.87a13.48,13.48,0,0,0,4.13-6.89A8.74,8.74,0,0,0,29.8,8.27ZM14.65,26,5.21,17.46a12.37,12.37,0,0,1-3.79-6.31,7.35,7.35,0,0,1-.24-2.69V8.4c.37-4.2,3.29-7.25,6.94-7.25a6.73,6.73,0,0,1,6.18,4.31l0,.09L11,8.94a.9.9,0,0,0,.51,1.52l6.76.9-5.56,5.09a1,1,0,0,0,.15,1.61l3.72,2.32Zm.27-19.72.45-.85a6.91,6.91,0,0,1,6.35-4.31c3.64,0,6.56,3.05,6.94,7.3a7.45,7.45,0,0,1-.24,2.71,12.3,12.3,0,0,1-3.78,6.3L16.21,25l1.35-4.07A1.39,1.39,0,0,0,17,19.31l-3.41-2.13,5.75-5.27a.94.94,0,0,0-.51-1.63l-6.68-.89,2.79-3.08Z"/></g></g></svg>